<svg width="23" height="23" viewBox="0 0 23 23" fill="none" xmlns="http://www.w3.org/2000/svg">
<path d="M7.13304 5.12708C7.74541 5.12708 8.31179 5.175 8.82929 5.31683C9.34775 5.41171 9.77229 5.60146 10.1489 5.83817C10.5265 6.07487 10.8092 6.40742 10.997 6.83387C11.1858 7.26033 11.2807 7.78262 11.2807 8.35092C11.2807 9.01504 11.1389 9.58333 10.8092 10.0098C10.5265 10.4372 10.055 10.8157 9.48958 11.1004C10.2907 11.338 10.9031 11.7645 11.2807 12.3328C11.6573 12.902 11.8931 13.6131 11.8931 14.4191C11.8931 15.0832 11.7512 15.6515 11.5155 16.1259C11.2807 16.6002 10.9031 17.0267 10.4786 17.3113C10.0174 17.6164 9.50763 17.8407 8.97112 17.9745C8.4057 18.1173 7.84029 18.2122 7.27487 18.2122H0.958496V5.12708H7.13304ZM6.75545 10.4362C7.27391 10.4362 7.69845 10.2944 8.02812 10.0577C8.35779 9.821 8.49962 9.39358 8.49962 8.87225C8.49962 8.58762 8.4517 8.303 8.35779 8.11421C8.26387 7.92446 8.12204 7.78167 7.9342 7.63983C7.74207 7.53215 7.53554 7.45244 7.32087 7.40312C7.08512 7.35521 6.85033 7.35521 6.56666 7.35521H3.8335V10.4372L6.75545 10.4362ZM6.89729 16.031C7.18 16.031 7.4627 15.9831 7.69845 15.9361C7.9342 15.8882 8.16995 15.7943 8.35779 15.6515C8.54982 15.5128 8.71048 15.3351 8.82929 15.1302C8.9232 14.8935 9.01808 14.6088 9.01808 14.2772C9.01808 13.6131 8.82929 13.1387 8.45266 12.8072C8.07508 12.5225 7.55662 12.3807 6.94425 12.3807H3.8335V16.032L6.89729 16.031ZM15.9938 15.9831C16.3704 16.3626 16.9358 16.5523 17.69 16.5523C18.2085 16.5523 18.68 16.4105 19.0566 16.1738C19.4342 15.8892 19.67 15.6045 19.7639 15.3199H22.0735C21.6959 16.4575 21.1305 17.2634 20.3772 17.7847C19.622 18.2591 18.727 18.5437 17.6431 18.5437C16.9496 18.5459 16.2619 18.4171 15.6162 18.1642C15.0351 17.9463 14.517 17.5882 14.1078 17.1216C13.6701 16.6851 13.3466 16.1477 13.1657 15.5566C12.93 14.9404 12.8351 14.2772 12.8351 13.5182C12.8351 12.8072 12.93 12.144 13.1657 11.5268C13.3927 10.9327 13.7284 10.386 14.1557 9.91492C14.5793 9.48846 15.0977 9.10992 15.6632 8.87225C16.2925 8.61931 16.9648 8.49044 17.6431 8.49275C18.4442 8.49275 19.1515 8.63554 19.7639 8.96712C20.3772 9.29871 20.8477 9.67821 21.2244 10.2475C21.602 10.7688 21.8856 11.385 22.0735 12.0491C22.1674 12.7123 22.2143 13.3764 22.1674 14.1345H15.3335C15.3335 14.8935 15.6162 15.6045 15.9938 15.984M18.9627 11.0065C18.633 10.6749 18.1146 10.4851 17.5012 10.4851C17.1416 10.4797 16.786 10.5609 16.4643 10.7218C16.1816 10.8646 15.9938 11.0544 15.805 11.2441C15.6315 11.4274 15.5167 11.6583 15.4753 11.9073C15.4274 12.145 15.3805 12.3337 15.3805 12.5235H19.622C19.5281 11.8124 19.2924 11.339 18.9627 11.0065ZM14.815 6.02792H20.0935V7.30825H14.816L14.815 6.02792Z" fill="#8000FF"/>
</svg>
