<svg width="23" height="23" viewBox="0 0 23 23" fill="none" xmlns="http://www.w3.org/2000/svg">
<path d="M7.47484 1.91667H15.5248C18.5915 1.91667 21.0832 4.40833 21.0832 7.475V15.525C21.0832 16.9992 20.4976 18.4129 19.4552 19.4553C18.4128 20.4977 16.999 21.0833 15.5248 21.0833H7.47484C4.40817 21.0833 1.9165 18.5917 1.9165 15.525V7.475C1.9165 6.00084 2.50211 4.58706 3.5445 3.54467C4.58689 2.50228 6.00068 1.91667 7.47484 1.91667ZM7.28317 3.83333C6.36817 3.83333 5.49065 4.19682 4.84365 4.84382C4.19665 5.49082 3.83317 6.36834 3.83317 7.28333V15.7167C3.83317 17.6238 5.37609 19.1667 7.28317 19.1667H15.7165C16.6315 19.1667 17.509 18.8032 18.156 18.1562C18.803 17.5092 19.1665 16.6317 19.1665 15.7167V7.28333C19.1665 5.37625 17.6236 3.83333 15.7165 3.83333H7.28317ZM16.5311 5.27083C16.8488 5.27083 17.1535 5.39704 17.3781 5.6217C17.6028 5.84635 17.729 6.15104 17.729 6.46875C17.729 6.78646 17.6028 7.09115 17.3781 7.31581C17.1535 7.54046 16.8488 7.66667 16.5311 7.66667C16.2134 7.66667 15.9087 7.54046 15.684 7.31581C15.4594 7.09115 15.3332 6.78646 15.3332 6.46875C15.3332 6.15104 15.4594 5.84635 15.684 5.6217C15.9087 5.39704 16.2134 5.27083 16.5311 5.27083ZM11.4998 6.70833C12.7707 6.70833 13.9894 7.21317 14.8881 8.11178C15.7867 9.01039 16.2915 10.2292 16.2915 11.5C16.2915 12.7708 15.7867 13.9896 14.8881 14.8882C13.9894 15.7868 12.7707 16.2917 11.4998 16.2917C10.229 16.2917 9.01023 15.7868 8.11162 14.8882C7.21301 13.9896 6.70817 12.7708 6.70817 11.5C6.70817 10.2292 7.21301 9.01039 8.11162 8.11178C9.01023 7.21317 10.229 6.70833 11.4998 6.70833ZM11.4998 8.625C10.7373 8.625 10.0061 8.9279 9.4669 9.46707C8.92774 10.0062 8.62484 10.7375 8.62484 11.5C8.62484 12.2625 8.92774 12.9938 9.4669 13.5329C10.0061 14.0721 10.7373 14.375 11.4998 14.375C12.2623 14.375 12.9936 14.0721 13.5328 13.5329C14.0719 12.9938 14.3748 12.2625 14.3748 11.5C14.3748 10.7375 14.0719 10.0062 13.5328 9.46707C12.9936 8.9279 12.2623 8.625 11.4998 8.625Z" fill="#8000FF"/>
</svg>
